<svg xmlns="http://www.w3.org/2000/svg" viewBox="0 0 1000 1000" fill="currentColor" role="img" aria-label="Sello de las armas reales de Carlos IV: Carolus IV D. G. Hispaniarum Rex"><circle cx="500.0" cy="500.0" r="486" fill="none" stroke="currentColor" stroke-width="13"/><circle cx="500.0" cy="500.0" r="468" fill="none" stroke="currentColor" stroke-width="3"/><circle cx="500.0" cy="500.0" r="400" fill="none" stroke="currentColor" stroke-width="4"/><path id="sealLeg" d="M88.0,500.0 a412,412 0 1,1 824,0 a412,412 0 1,1 -824,0" fill="none"/><text font-family="Spectral,Georgia,&quot;Times New Roman&quot;,serif" font-size="53" font-weight="600" letter-spacing="10" fill="currentColor"><textPath href="#sealLeg" startOffset="50%" text-anchor="middle">CAROLVS · IV · D · G · HISPANIARVM REX</textPath></text><path d="M418.8,327.4 L581.2,327.4 L581.2,359.1 L418.8,359.1 Z M438.6,343.2 L448.5,329.4 L458.4,343.2 L448.5,357.1 Z M490.1,343.2 L500.0,329.4 L509.9,343.2 L500.0,357.1 Z M541.6,343.2 L551.5,329.4 L561.4,343.2 L551.5,357.1 Z M408.9,325.4 L426.7,285.8 L444.6,325.4 Z M416.4,272.0 a10.3,10.3 0 1,0 20.6,0 a10.3,10.3 0 1,0 -20.6,0 Z M442.6,325.4 L460.4,262.1 L478.2,325.4 Z M450.1,248.2 a10.3,10.3 0 1,0 20.6,0 a10.3,10.3 0 1,0 -20.6,0 Z M480.2,325.4 L500.0,246.2 L519.8,325.4 Z M489.7,232.4 a10.3,10.3 0 1,0 20.6,0 a10.3,10.3 0 1,0 -20.6,0 Z M521.8,325.4 L539.6,262.1 L557.4,325.4 Z M529.3,248.2 a10.3,10.3 0 1,0 20.6,0 a10.3,10.3 0 1,0 -20.6,0 Z M555.4,325.4 L573.3,285.8 L591.1,325.4 Z M563.0,272.0 a10.3,10.3 0 1,0 20.6,0 a10.3,10.3 0 1,0 -20.6,0 Z M483.2,200.7 a16.8,16.8 0 1,0 33.7,0 a16.8,16.8 0 1,0 -33.7,0 Z M493.1,161.1 L506.9,161.1 L506.9,173.0 L517.8,173.0 L517.8,184.8 L506.9,184.8 L506.9,198.7 L493.1,198.7 L493.1,184.8 L482.2,184.8 L482.2,173.0 L493.1,173.0 Z" fill-rule="evenodd"/><path d="M270,474 C274,414 336,382 386,390 C424,374 470,364 500,364 C530,364 576,374 614,390 C664,382 726,414 730,474 C746,572 742,684 706,752 C660,820 552,838 500,838 C448,838 340,820 294,752 C258,684 254,572 270,474 Z" fill="none" stroke="currentColor" stroke-width="10"/><path d="M284,500 a30,30 0 1,1 30,-26 a17,17 0 1,0 -17,15" fill="none" stroke="currentColor" stroke-width="9" stroke-linecap="round"/><path d="M716,500 a30,30 0 1,0 -30,-26 a17,17 0 1,1 17,15" fill="none" stroke="currentColor" stroke-width="9" stroke-linecap="round"/><path d="M354,516 C344,600 348,690 368,762" fill="none" stroke="currentColor" stroke-width="5" stroke-linecap="round"/><path d="M646,516 C656,600 652,690 632,762" fill="none" stroke="currentColor" stroke-width="5" stroke-linecap="round"/><g transform="translate(354.1,738.2) rotate(-99.1)"><path d="M-22.0,0 C-10.6,-13.2 10.6,-13.2 22.0,0 C10.6,13.2 -10.6,13.2 -22.0,0 Z"/></g><circle cx="352.4" cy="706.2" r="6"/><g transform="translate(331.1,683.2) rotate(-82.6)"><path d="M-22.0,0 C-10.6,-13.2 10.6,-13.2 22.0,0 C10.6,13.2 -10.6,13.2 -22.0,0 Z"/></g><circle cx="338.4" cy="651.8" r="6"/><g transform="translate(324.1,623.1) rotate(-66.7)"><path d="M-22.0,0 C-10.6,-13.2 10.6,-13.2 22.0,0 C10.6,13.2 -10.6,13.2 -22.0,0 Z"/></g><circle cx="339.6" cy="595.1" r="6"/><g transform="translate(333.7,563.4) rotate(-50.8)"><path d="M-22.0,0 C-10.6,-13.2 10.6,-13.2 22.0,0 C10.6,13.2 -10.6,13.2 -22.0,0 Z"/></g><circle cx="356.1" cy="541.6" r="6"/><g transform="translate(359.2,509.8) rotate(-34.2)"><path d="M-22.0,0 C-10.6,-13.2 10.6,-13.2 22.0,0 C10.6,13.2 -10.6,13.2 -22.0,0 Z"/></g><circle cx="386.2" cy="496.3" r="6"/><g transform="translate(398.0,467.5) rotate(-16.5)"><path d="M-22.0,0 C-10.6,-13.2 10.6,-13.2 22.0,0 C10.6,13.2 -10.6,13.2 -22.0,0 Z"/></g><circle cx="427.1" cy="463.4" r="6"/><g transform="translate(446.4,440.3) rotate(2.3)"><path d="M-22.0,0 C-10.6,-13.2 10.6,-13.2 22.0,0 C10.6,13.2 -10.6,13.2 -22.0,0 Z"/></g><circle cx="474.9" cy="446.2" r="6"/><g transform="translate(500.0,431.0) rotate(22.0)"><path d="M-22.0,0 C-10.6,-13.2 10.6,-13.2 22.0,0 C10.6,13.2 -10.6,13.2 -22.0,0 Z"/></g><circle cx="525.1" cy="446.2" r="6"/><g transform="translate(553.6,440.3) rotate(41.7)"><path d="M-22.0,0 C-10.6,-13.2 10.6,-13.2 22.0,0 C10.6,13.2 -10.6,13.2 -22.0,0 Z"/></g><circle cx="572.9" cy="463.4" r="6"/><g transform="translate(602.0,467.5) rotate(60.5)"><path d="M-22.0,0 C-10.6,-13.2 10.6,-13.2 22.0,0 C10.6,13.2 -10.6,13.2 -22.0,0 Z"/></g><circle cx="613.8" cy="496.3" r="6"/><g transform="translate(640.8,509.8) rotate(78.2)"><path d="M-22.0,0 C-10.6,-13.2 10.6,-13.2 22.0,0 C10.6,13.2 -10.6,13.2 -22.0,0 Z"/></g><circle cx="643.9" cy="541.6" r="6"/><g transform="translate(666.3,563.4) rotate(94.8)"><path d="M-22.0,0 C-10.6,-13.2 10.6,-13.2 22.0,0 C10.6,13.2 -10.6,13.2 -22.0,0 Z"/></g><circle cx="660.4" cy="595.1" r="6"/><g transform="translate(675.9,623.1) rotate(110.7)"><path d="M-22.0,0 C-10.6,-13.2 10.6,-13.2 22.0,0 C10.6,13.2 -10.6,13.2 -22.0,0 Z"/></g><circle cx="661.6" cy="651.8" r="6"/><g transform="translate(668.9,683.2) rotate(126.6)"><path d="M-22.0,0 C-10.6,-13.2 10.6,-13.2 22.0,0 C10.6,13.2 -10.6,13.2 -22.0,0 Z"/></g><circle cx="647.6" cy="706.2" r="6"/><g transform="translate(645.9,738.2) rotate(143.1)"><path d="M-22.0,0 C-10.6,-13.2 10.6,-13.2 22.0,0 C10.6,13.2 -10.6,13.2 -22.0,0 Z"/></g><path d="M470.0,835.0 q30,-20 60,0 q-18,24 -30,4 q-12,20 -30,-4 Z"/><clipPath id="sealShield"><ellipse cx="500.0" cy="628" rx="136.0" ry="169.0"/></clipPath><mask id="sealEsc" maskUnits="userSpaceOnUse"><rect width="1000" height="1000" fill="#fff"/><ellipse cx="500.0" cy="628" rx="71" ry="83" fill="#000"/></mask><g clip-path="url(#sealShield)"><g mask="url(#sealEsc)"><path d="M500.0,453.0 L500.0,751.0" stroke="currentColor" stroke-width="9" fill="none"/><path d="M358.0,628 L642.0,628" stroke="currentColor" stroke-width="9" fill="none"/><path d="M386.8,569.8 L386.8,530.6 L465.2,530.6 L465.2,569.8 Z M416.2,569.8 L416.2,546.3 Q426.0,536.5 435.8,546.3 L435.8,569.8 Z M385.8,530.6 L385.8,505.1 L390.7,505.1 L390.7,495.3 L395.6,495.3 L395.6,505.1 L401.5,505.1 L401.5,495.3 L406.4,495.3 L406.4,505.1 L411.3,505.1 L411.3,530.6 Z M413.3,530.6 L413.3,505.1 L418.2,505.1 L418.2,495.3 L423.1,495.3 L423.1,505.1 L428.9,505.1 L428.9,495.3 L433.8,495.3 L433.8,505.1 L438.7,505.1 L438.7,530.6 Z M440.7,530.6 L440.7,505.1 L445.6,505.1 L445.6,495.3 L450.5,495.3 L450.5,505.1 L456.4,505.1 L456.4,495.3 L461.3,495.3 L461.3,505.1 L466.2,505.1 L466.2,530.6 Z"/><path d="M557.3,517.8 C561.3,532.5 569.1,542.3 587.7,552.1" fill="none" stroke="currentColor" stroke-width="10.8" stroke-linecap="round"/><path d="M558.3,524.7 L541.7,512.0" fill="none" stroke="currentColor" stroke-width="10.8" stroke-linecap="round"/><path d="M561.3,534.5 L545.6,534.5" fill="none" stroke="currentColor" stroke-width="10.8" stroke-linecap="round"/><path d="M587.7,552.1 L585.8,573.7" fill="none" stroke="currentColor" stroke-width="10.8" stroke-linecap="round"/><path d="M574.0,546.3 L566.2,571.7" fill="none" stroke="currentColor" stroke-width="10.8" stroke-linecap="round"/><path d="M589.7,550.2 C603.4,542.3 607.3,524.7 599.5,509.0" fill="none" stroke="currentColor" stroke-width="8.8" stroke-linecap="round"/><path d="M599.5,509.0 L611.2,499.2 L607.3,514.9 Z"/><path d="M542.6,508.0 a12.7,12.7 0 1,0 25.5,0 a12.7,12.7 0 1,0 -25.5,0 Z"/><path d="M548.5,503.1 L533.8,511.0 L549.5,516.9 Z"/><path d="M557.3,493.3 L565.2,489.4 L564.2,499.2 Z"/><path d="M409.3,687.8 C413.3,702.5 421.1,712.3 439.7,722.1" fill="none" stroke="currentColor" stroke-width="10.8" stroke-linecap="round"/><path d="M410.3,694.7 L393.7,682.0" fill="none" stroke="currentColor" stroke-width="10.8" stroke-linecap="round"/><path d="M413.3,704.5 L397.6,704.5" fill="none" stroke="currentColor" stroke-width="10.8" stroke-linecap="round"/><path d="M439.7,722.1 L437.8,743.7" fill="none" stroke="currentColor" stroke-width="10.8" stroke-linecap="round"/><path d="M426.0,716.3 L418.2,741.7" fill="none" stroke="currentColor" stroke-width="10.8" stroke-linecap="round"/><path d="M441.7,720.2 C455.4,712.3 459.3,694.7 451.5,679.0" fill="none" stroke="currentColor" stroke-width="8.8" stroke-linecap="round"/><path d="M451.5,679.0 L463.2,669.2 L459.3,684.9 Z"/><path d="M394.6,678.0 a12.7,12.7 0 1,0 25.5,0 a12.7,12.7 0 1,0 -25.5,0 Z"/><path d="M400.5,673.1 L385.8,681.0 L401.5,686.9 Z"/><path d="M409.3,663.3 L417.2,659.4 L416.2,669.2 Z"/><path d="M534.8,739.8 L534.8,700.6 L613.2,700.6 L613.2,739.8 Z M564.2,739.8 L564.2,716.3 Q574.0,706.5 583.8,716.3 L583.8,739.8 Z M533.8,700.6 L533.8,675.1 L538.7,675.1 L538.7,665.3 L543.6,665.3 L543.6,675.1 L549.5,675.1 L549.5,665.3 L554.4,665.3 L554.4,675.1 L559.3,675.1 L559.3,700.6 Z M561.3,700.6 L561.3,675.1 L566.2,675.1 L566.2,665.3 L571.1,665.3 L571.1,675.1 L576.9,675.1 L576.9,665.3 L581.8,665.3 L581.8,675.1 L586.7,675.1 L586.7,700.6 Z M588.7,700.6 L588.7,675.1 L593.6,675.1 L593.6,665.3 L598.5,665.3 L598.5,675.1 L604.4,675.1 L604.4,665.3 L609.3,665.3 L609.3,675.1 L614.2,675.1 L614.2,700.6 Z"/><path d="M366.0,749.0 L634.0,749.0" stroke="currentColor" stroke-width="9" fill="none"/><path d="M500.0,765.6 Q486.5,768.7 486.5,780.1 Q486.5,793.6 500.0,797.8 Q513.5,793.6 513.5,780.1 Q513.5,768.7 500.0,765.6 Z M500.0,754.1 L505.2,764.5 L494.8,764.5 Z"/></g></g><ellipse cx="500.0" cy="628" rx="142.0" ry="175.0" fill="none" stroke="currentColor" stroke-width="12"/><ellipse cx="500.0" cy="628" rx="63" ry="75" fill="none" stroke="currentColor" stroke-width="10"/><path d="M500.0,573.3 Q495.5,583.2 497.3,592.2 Q490.1,585.0 484.7,591.8 Q482.0,597.6 490.1,600.8 L495.9,598.5 L495.9,603.0 L504.1,603.0 L504.1,598.5 L509.9,600.8 Q518.0,597.6 515.3,591.8 Q509.9,585.0 502.7,592.2 Q504.5,583.2 500.0,573.3 Z M491.9,605.7 L508.1,605.7 L508.1,611.1 L491.9,611.1 Z"/><path d="M473.0,630.3 Q468.5,640.2 470.3,649.2 Q463.1,642.0 457.7,648.8 Q455.0,654.6 463.1,657.8 L468.9,655.5 L468.9,660.0 L477.1,660.0 L477.1,655.5 L482.9,657.8 Q491.0,654.6 488.3,648.8 Q482.9,642.0 475.7,649.2 Q477.5,640.2 473.0,630.3 Z M464.9,662.7 L481.1,662.7 L481.1,668.1 L464.9,668.1 Z"/><path d="M527.0,630.3 Q522.5,640.2 524.3,649.2 Q517.1,642.0 511.7,648.8 Q509.0,654.6 517.1,657.8 L523.0,655.5 L523.0,660.0 L531.0,660.0 L531.0,655.5 L536.9,657.8 Q545.0,654.6 542.3,648.8 Q536.9,642.0 529.7,649.2 Q531.5,640.2 527.0,630.3 Z M518.9,662.7 L535.1,662.7 L535.1,668.1 L518.9,668.1 Z"/></svg>